{"title":"NCAA BB_OSU_VS_Delaware_720p.HDTV.x264_TTL","uid":9366733,"size":2500204840,"categoryP":"video","categoryS":"hd___tv_shows","magnet":"?xt=urn:btih:abe9bbd60872c1e20c086171e1fbdb2addb38944&amp;dn=NCAA+BB_OSU_VS_Delaware_720p.HDTV.x264_TTL&amp;tr=udp%3A%2F%2Ftracker.openbittorrent.com%3A80&amp;tr=udp%3A%2F%2Fopen.demonii.com%3A1337&amp;tr=udp%3A%2F%2Ftracker.coppersurfer.tk%3A6969&amp;tr=udp%3A%2F%2Fexodus.desync.com%3A6969","seeders":0,"leechers":0,"uploader":"thetorrentlord","files":-1,"time":1387438651,"description":"2 files for your convenience.\t\t\t\t\t\t\t\t\t\n\n\t\t\t\t\t\t\t\t\t\t\t\t\n\nGO BUCKS!!!!!!!\t\t\t\t\t\t\t\t\t\t\t\n\n\t\t\t\t\t\t\t\t\t\t\t\t\n\n\t\t\t\t\t\t\t\t\t\t\t\n\nEnjoy and please share.\t\t\t\t\t\t\t\t\t\t\n\n\t\t\t\t\t\t\t\t\t\t\t\t\n\n\t\t\t\t\t\t\t\t\t\t\t\t\n\nGrab the sample and if you like it, then go for it.\t\t\t\t\t\t\n\n\t\t\t\t\t\t\t\t\t\t\t\t\n\n\t\t\t\t\t\t\t\t\t\t\t\t\n\n\t\t\t\t\t\t\t\t\t\t\t\t\n\n\t\t\t\t\t\t\t\t\t\t\t\n\nTTLTTLTTLTTLTTLTTLTTLTTLTTLTTLTTLTTLTTLTTLTTLTTLTTLTTLTTL\t\t\t\t\t\n\n\t\t\t\t\t\t\t\t\t\t\t\t\n\n\t\t\t\t\t\t\t\t\t\t\t\t\n\n\t\t\t\t\t\t\t\t\t\t\t\t\n\n\t\t\t\t\t\t\t\t\t\t\t\t\n\nNCAA BB_OSU_VS_Delaware_(1st Half)_720p.HDTV.x264_TTL.mkv\nFormat                           : Matroska\nFormat version                   : Version 2\nFile size                        : 1.07 GiB\nDuration                         : 39mn 14s\nOverall bit rate                 : 3 903 Kbps\nWriting application              : HandBrake 0.9.5\nWriting library                  : libmkv 0.6.4.1\n\nVideo\nID                               : 1\nFormat                           : AVC\nFormat/Info                      : Advanced Video Codec\nFormat profile                   : &lt;a class=&quot;__cf_email__&quot; href=&quot;/cdn-cgi/l/email-protection&quot; data-cfemail=&quot;e9a4888087a9a5dac7d8&quot;&gt;[email&amp;#160;protected]&lt;/a&gt;&lt;script data-cfhash='f9e31' type=&quot;text/javascript&quot;&gt;\n/* &lt;![CDATA[ */!function(){try{var t=&quot;currentScript&quot;in document?document.currentScript:function(){for(var t=document.getElementsByTagName(&quot;script&quot;),e=t.length;e--;)if(t[e].getAttribute(&quot;data-cfhash&quot;))return t[e]}();if(t&amp;&amp;t.previousSibling){var e,r,n,i,c=t.previousSibling,a=c.getAttribute(&quot;data-cfemail&quot;);if(a){for(e=&quot;&quot;,r=parseInt(a.substr(0,2),16),n=2;a.length-n;n+=2)i=parseInt(a.substr(n,2),16)^r,e+=String.fromCharCode(i);e=document.createTextNode(e),c.parentNode.replaceChild(e,c)}t.parentNode.removeChild(t);}}catch(u){}}()/* ]]&gt; */&lt;/script&gt;\nFormat settings, CABAC           : Yes\nFormat settings, ReFrames        : 4 frames\nCodec ID                         : V_MPEG4/ISO/AVC\nDuration                         : 39mn 14s\nBit rate                         : 3 705 Kbps\nWidth                            : 1 280 pixels\nHeight                           : 720 pixels\nDisplay aspect ratio             : 16:9\nFrame rate mode                  : Variable\nFrame rate                       : 29.970 fps\nColor space                      : YUV\nChroma subsampling               : 4:2:0\nBit depth                        : 8 bits\nScan type                        : Progressive\nBits/(Pixel*Frame)               : 0.134\nStream size                      : 1 020 MiB (93%)\nWriting library                  : x264 core 112\n\nLanguage                         : English\nDefault                          : Yes\nForced                           : No\n\nAudio\nID                               : 2\nFormat                           : AC-3\nFormat/Info                      : Audio Coding 3\nMode extension                   : CM (complete main)\nCodec ID                         : A_AC3\nDuration                         : 39mn 14s\nBit rate mode                    : Constant\nBit rate                         : 192 Kbps\nChannel(s)                       : 2 channels\nChannel positions                : Front: L R\nSampling rate                    : 48.0 KHz\nBit depth                        : 16 bits\nCompression mode                 : Lossy\nStream size                      : 53.9 MiB (5%)\nDefault                          : Yes\nForced                           : No\n\n\n","torrent":{"xt":"urn:btih:abe9bbd60872c1e20c086171e1fbdb2addb38944","amp;dn":"NCAA+BB_OSU_VS_Delaware_720p.HDTV.x264_TTL","amp;tr":["udp%3A%2F%2Ftracker.openbittorrent.com%3A80","udp%3A%2F%2Fopen.demonii.com%3A1337","udp%3A%2F%2Ftracker.coppersurfer.tk%3A6969","udp%3A%2F%2Fexodus.desync.com%3A6969"],"infoHash":"abe9bbd60872c1e20c086171e1fbdb2addb38944","infoHashBuffer":{"type":"Buffer","data":[171,233,187,214,8,114,193,226,12,8,97,113,225,251,219,42,221,179,137,68]},"announce":[],"urlList":[]}}